<?xml version="1.0" encoding="UTF-8"?>
<svg id="_圖層_2" data-name="圖層 2" xmlns="http://www.w3.org/2000/svg" xmlns:xlink="http://www.w3.org/1999/xlink" viewBox="0 0 188.43 75">
  <defs>
    <style>
      .cls-1 {
        fill: url(#_未命名漸層_26-7);
      }

      .cls-1, .cls-2, .cls-3, .cls-4, .cls-5, .cls-6, .cls-7, .cls-8, .cls-9, .cls-10, .cls-11, .cls-12 {
        stroke-width: 0px;
      }

      .cls-2 {
        fill: url(#_未命名漸層_26-10);
      }

      .cls-3 {
        fill: url(#_未命名漸層_26-12);
      }

      .cls-4 {
        fill: url(#_未命名漸層_26-8);
      }

      .cls-5 {
        fill: url(#_未命名漸層_26);
      }

      .cls-6 {
        fill: url(#_未命名漸層_26-6);
      }

      .cls-7 {
        fill: url(#_未命名漸層_26-2);
      }

      .cls-8 {
        fill: url(#_未命名漸層_26-3);
      }

      .cls-9 {
        fill: url(#_未命名漸層_26-9);
      }

      .cls-10 {
        fill: url(#_未命名漸層_26-11);
      }

      .cls-11 {
        fill: url(#_未命名漸層_26-5);
      }

      .cls-12 {
        fill: url(#_未命名漸層_26-4);
      }
    </style>
    <linearGradient id="_未命名漸層_26" data-name="未命名漸層 26" x1="-1962.74" y1="-752.88" x2="-1962.12" y2="-752.88" gradientTransform="translate(188592.18 29898.26) rotate(30) scale(90.77 -90.77)" gradientUnits="userSpaceOnUse">
      <stop offset="0" stop-color="#00f559"/>
      <stop offset=".51" stop-color="#00cfff"/>
      <stop offset="1" stop-color="#644de2"/>
    </linearGradient>
    <linearGradient id="_未命名漸層_26-2" data-name="未命名漸層 26" x1="-1962.74" y1="-752.89" x2="-1962.12" y2="-752.89" gradientTransform="translate(188593.93 29895.22) rotate(30) scale(90.77 -90.77)" xlink:href="#_未命名漸層_26"/>
    <linearGradient id="_未命名漸層_26-3" data-name="未命名漸層 26" x1="-1962.74" y1="-752.75" x2="-1962.12" y2="-752.75" gradientTransform="translate(188576.85 29924.81) rotate(30) scale(90.77 -90.77)" xlink:href="#_未命名漸層_26"/>
    <linearGradient id="_未命名漸層_26-4" data-name="未命名漸層 26" x1="-1962.74" y1="-752.88" x2="-1962.12" y2="-752.88" gradientTransform="translate(188592.79 29897.19) rotate(30) scale(90.77 -90.77)" xlink:href="#_未命名漸層_26"/>
    <linearGradient id="_未命名漸層_26-5" data-name="未命名漸層 26" x1="-1962.74" y1="-752.85" x2="-1962.12" y2="-752.85" gradientTransform="translate(14245.29 190278.05) rotate(106.76) scale(90.77 -90.77)" xlink:href="#_未命名漸層_26"/>
    <linearGradient id="_未命名漸層_26-6" data-name="未命名漸層 26" x1="-1962.74" y1="-752.74" x2="-1962.12" y2="-752.74" gradientTransform="translate(188575 29928.02) rotate(30) scale(90.77 -90.77)" xlink:href="#_未命名漸層_26"/>
    <linearGradient id="_未命名漸層_26-7" data-name="未命名漸層 26" x1="-1962.74" y1="-752.71" x2="-1962.12" y2="-752.71" gradientTransform="translate(188572.13 29932.97) rotate(30) scale(90.77 -90.77)" xlink:href="#_未命名漸層_26"/>
    <linearGradient id="_未命名漸層_26-8" data-name="未命名漸層 26" x1="-1962.74" y1="-752.7" x2="-1962.12" y2="-752.7" gradientTransform="translate(188570.3 29936.14) rotate(30) scale(90.77 -90.77)" xlink:href="#_未命名漸層_26"/>
    <linearGradient id="_未命名漸層_26-9" data-name="未命名漸層 26" x1="-1962.74" y1="-752.56" x2="-1962.12" y2="-752.56" gradientTransform="translate(188554.36 29963.76) rotate(30) scale(90.77 -90.77)" xlink:href="#_未命名漸層_26"/>
    <linearGradient id="_未命名漸層_26-10" data-name="未命名漸層 26" x1="-1962.74" y1="-752.6" x2="-1962.12" y2="-752.6" gradientTransform="translate(14311.63 190306.38) rotate(106.72) scale(90.77 -90.77)" xlink:href="#_未命名漸層_26"/>
    <linearGradient id="_未命名漸層_26-11" data-name="未命名漸層 26" x1="-1962.74" y1="-752.57" x2="-1962.12" y2="-752.57" gradientTransform="translate(188554.97 29962.7) rotate(30) scale(90.77 -90.77)" xlink:href="#_未命名漸層_26"/>
    <linearGradient id="_未命名漸層_26-12" data-name="未命名漸層 26" x1="-1962.74" y1="-752.56" x2="-1962.12" y2="-752.56" gradientTransform="translate(188553.22 29965.73) rotate(30) scale(90.77 -90.77)" xlink:href="#_未命名漸層_26"/>
  </defs>
  <g id="_圖層_1-2" data-name="圖層 1">
    <g>
      <path class="cls-5" d="m155.59,15.41c0-2.25,1.82-4.07,4.07-4.07s4.07,1.82,4.07,4.07-1.82,4.07-4.07,4.07-4.07-1.82-4.07-4.07Z"/>
      <path class="cls-7" d="m140.65,3.59c0-1.61,1.3-2.91,2.91-2.91s2.91,1.3,2.91,2.91-1.3,2.91-2.91,2.91-2.91-1.3-2.91-2.91Z"/>
      <path class="cls-8" d="m173.7,41.48c2.25,0,4.07,1.82,4.07,4.07s-1.82,4.07-4.07,4.07-4.07-1.82-4.07-4.07,1.82-4.07,4.07-4.07Z"/>
      <path class="cls-12" d="m185.52,26.54c1.61,0,2.91,1.3,2.91,2.91s-1.3,2.91-2.91,2.91-2.91-1.3-2.91-2.91,1.3-2.91,2.91-2.91Z"/>
      <circle class="cls-11" cx="173.7" cy="29.45" r="4.57" transform="translate(105.25 191.79) rotate(-76.76)"/>
      <path class="cls-6" d="m146.28,41.19c-1.24-.77-1.95-2.16-1.95-3.62v-.14c0-1.46.71-2.85,1.95-3.62,1.45-.91,2.42-2.52,2.42-4.36,0-1.94-1.07-3.63-2.66-4.5-1.04-.57-1.71-1.64-1.71-2.82s.57-2.21,1.54-2.78c1.41-.83,2.33-2.39,2.25-4.16-.11-2.3-1.97-4.19-4.27-4.33-2.66-.17-4.86,1.94-4.86,4.56,0,1.69.91,3.16,2.27,3.95.96.56,1.52,1.61,1.52,2.72v.05c0,1.16-.62,2.24-1.64,2.79-1.76.94-2.91,2.87-2.7,5.04.15,1.59,1.04,2.97,2.32,3.8,1.24.81,2.03,2.16,2.03,3.65v.28c0,1.45-.78,2.75-1.99,3.53-1.56,1-2.54,2.81-2.35,4.84.24,2.49,2.29,4.47,4.79,4.63,2.99.19,5.47-2.18,5.47-5.13,0-1.84-.97-3.45-2.42-4.36Zm-5.63-11.74c0-1.61,1.3-2.91,2.91-2.91s2.91,1.3,2.91,2.91-1.3,2.91-2.91,2.91-2.91-1.3-2.91-2.91Z"/>
      <path class="cls-1" d="m161.94,55.64c-.91-.52-1.5-1.47-1.5-2.52v-.35c0-1.11.62-2.14,1.61-2.65,1.64-.86,2.76-2.58,2.76-4.56,0-1.84-.97-3.45-2.42-4.36-1.19-.74-1.95-2.01-1.95-3.41v-.46c0-1.45.78-2.75,1.99-3.53,1.56-1,2.54-2.81,2.35-4.84-.22-2.35-2.43-4.48-4.79-4.63-2.99-.19-5.47,2.18-5.47,5.13,0,1.84.97,3.45,2.42,4.36,1.19.74,1.95,2.01,1.95,3.41v.46c0,1.43-.74,2.75-1.95,3.5-1.59.99-2.59,2.82-2.4,4.87.17,1.75,1.24,3.26,2.73,4.04.98.52,1.61,1.5,1.61,2.61v.33c0,1.09-.6,2.07-1.54,2.62-1.41.83-2.33,2.39-2.25,4.16.11,2.3,1.97,4.19,4.27,4.33,2.66.17,4.86-1.94,4.86-4.56,0-1.69-.92-3.17-2.29-3.96Zm-5.19-10.08c0-1.61,1.3-2.91,2.91-2.91s2.91,1.3,2.91,2.91-1.3,2.91-2.91,2.91-2.91-1.3-2.91-2.91Z"/>
      <path class="cls-4" d="m129.52,33.52c-2.25,0-4.07-1.82-4.07-4.07s1.82-4.07,4.07-4.07,4.07,1.82,4.07,4.07-1.82,4.07-4.07,4.07Z"/>
      <path class="cls-9" d="m117.7,48.46c-1.61,0-2.91-1.3-2.91-2.91s1.3-2.91,2.91-2.91,2.91,1.3,2.91,2.91-1.3,2.91-2.91,2.91Z"/>
      <circle class="cls-2" cx="129.52" cy="45.55" r="4.57" transform="translate(55.43 161.14) rotate(-76.72)"/>
      <path class="cls-10" d="m147.63,59.59c0,2.25-1.82,4.07-4.07,4.07s-4.07-1.82-4.07-4.07,1.82-4.07,4.07-4.07,4.07,1.82,4.07,4.07Z"/>
      <circle class="cls-3" cx="159.66" cy="71.41" r="2.91"/>
    </g>
    <image width="75" height="75" xlink:href="../favicon.png"/>
  </g>
</svg>